PathFileType	4	(X/Y/Z)	C:/Users/beibeiliu/ov580/test_trc\sequence.21_training_dense_right.trc
DataRate	CameraRate	NumFrames	NumMarkers	Units	OrigDataRate	OrigDataStartFrame	OrigNumFrames
120	120	10	19	mm	120	50	397
Frame#	Time	ThumbCMC			ThumbMCP			ThumbIP			ThumbTip			IndexMCP			IndexPIP			IndexTip			MiddleMCP			MiddlePIP			MiddleTip			RingMCP			RingPIP			RingTip			PinkyMCP			PinkyPIP			PinkyTip			BackHand1			BackHand2			BackHand3	
		X0	Y0	Z0	X1	Y1	Z1	X2	Y2	Z2	X3	Y3	Z3	X4	Y4	Z4	X5	Y5	Z5	X6	Y6	Z6	X7	Y7	Z7	X8	Y8	Z8	X9	Y9	Z9	X10	Y10	Z10	X11	Y11	Z11	X12	Y12	Z12	X13	Y13	Z13	X14	Y14	Z14	X15	Y15	Z15	X16	Y16	Z16	X17	Y17	Z17	X18	Y18	Z18	
49	0.408333	248.048	33.6674	33.1409	227.85	42.768	3.56165	213.271	32.7701	-11.3251	202.681	8.08112	-14.5074	255.27	21.8342	-28.8538	248.73	26.7441	-54.664	240.674	31.4229	-75.1042	248.559	4.6655	-31.2792	241.3	2.72574	-60.7433	235.832	6.83446	-81.7728	233.51	-12.9827	-26.1975	231.721	-9.89249	-47.4357	222.932	-9.13562	-71.2762	221.574	-20.8443	-9.97148	213.324	-26.2451	-28.7427	213.307	-26.7346	-46.193	244.089	-15.6095	18.1263	248.739	-14.3807	41.9374	263.957	4.26695	29.1538	
50	0.416667	251.256	35.7402	31.4418	230.077	46.8861	5.222	215.986	34.7016	-10.2544	201.76	10.1202	-14.9478	257.909	21.7748	-31.0852	251.78	26.7848	-53.0411	243.545	31.5085	-72.1862	246.752	3.34146	-36.5748	242.329	6.02504	-56.9028	230.872	4.86022	-81.5533	230.195	-12.9649	-25.4817	226.384	-10.6494	-46.3932	217.41	-8.76852	-69.9409	216.764	-19.8148	-11.4955	212.78	-20.9287	-30.1478	203.539	-25.7717	-45.6181	243.704	-13.9557	15.204	248.376	-16.8685	40.5716	261.509	1.73874	29.6285	
51	0.425	252.746	36.0572	35.544	233.289	43.7889	5.17229	217.673	33.6644	-8.19021	202.744	11.9135	-12.5115	256.391	18.879	-27.8331	250.042	24.5865	-49.3249	244.925	33.6372	-72.3959	244.467	2.34035	-31.4648	240.286	5.35644	-55.6621	232.477	9.71588	-83.4239	226.812	-12.5192	-23.792	224.475	-7.53166	-49.9482	215.066	-7.17905	-69.3562	213.899	-18.839	-12.7509	205.834	-20.8482	-26.0021	200.938	-23.0475	-48.7715	241.538	-15.2184	15.6578	243.595	-20.0879	42.5145	263.337	0.947504	28.6123	
52	0.433333	254.845	33.6635	33.7259	234.302	46.3012	5.8991	218.438	32.7434	-8.65144	201.626	16.2668	-13.2131	254.464	18.6617	-31.9617	251.648	26.379	-53.431	240.718	30.9404	-75.4254	241.981	0.39582	-35.155	239.412	6.37456	-56.3883	228.263	6.92192	-81.8694	226.734	-9.69007	-27.1855	220.803	-7.38513	-47.8068	212.552	-5.27712	-69.369	212.072	-17.1197	-11.29	204.968	-17.7292	-28.573	199.122	-20.1538	-46.2791	238.258	-17.7037	17.0661	244.515	-17.1583	44.9109	259.54	-1.26574	27.9437	
53	0.441667	255.583	31.251	34.4109	237.137	47.3963	6.29507	220.143	37.5621	-8.08971	200.634	15.6905	-13.5452	255.434	16.8747	-28.7468	249.653	21.9019	-49.4	241.9	28.9119	-70.6195	243.084	1.99989	-33.4929	236.158	4.07969	-60.1094	227.764	6.12019	-80.9745	222.937	-11.0534	-27.8751	217.772	-8.03296	-46.8558	213.458	-0.562868	-70.1732	207.733	-17.152	-9.83991	199.375	-17.2795	-25.3572	198.053	-17.7149	-44.6987	237.119	-18.544	19.2317	242.684	-19.5542	42.9742	262.258	-2.68972	26.9085	
54	0.45	255.261	26.886	34.777	240.384	44.0985	9.82499	222.045	36.0184	-9.43503	203.969	22.9563	-12.949	254.639	14.6978	-32.8523	251.325	22.6168	-54.5428	245.384	28.7276	-71.6473	241.049	0.917867	-35.818	235.597	5.26537	-60.6687	230.794	9.76712	-80.3412	223.337	-7.80501	-28.3655	214.939	-7.0849	-46.8125	211.195	-0.555015	-66.469	205.297	-14.8408	-13.8459	197.961	-12.7764	-29.2487	190.979	-15.5521	-48.6253	236.218	-16.3091	15.7384	239.074	-21.2312	43.1073	261.111	-5.46781	23.9469	
55	0.458333	256.9	23.6025	33.7363	243.573	40.5179	7.40671	225.931	38.8697	-7.47002	204.907	21.9748	-10.8192	257.748	13.5937	-31.2128	251.842	19.7068	-52.5108	247.826	27.4436	-70.739	239.855	-0.302754	-34.6405	235.786	4.94218	-57.8431	227.37	10.3795	-83.3455	219.515	-8.71431	-24.5095	217.67	-1.69642	-49.8757	207.741	0.616968	-67.7504	204.658	-11.9	-10.8048	193.953	-10.4196	-28.0559	192.55	-10.5118	-46.0035	233.213	-19.0358	15.651	236.688	-21.1426	43.703	261.197	-6.57523	24.906	
56	0.466667	259.935	20.4455	33.1206	247.062	40.7726	7.46329	228.993	36.5428	-8.38723	206.906	25.9169	-12.1711	256.567	9.34483	-31.5718	256.277	17.5335	-49.9514	251.275	27.2163	-72.957	239.6	-1.69098	-33.8086	234.322	3.31928	-55.4634	229.432	11.442	-80.7019	221.625	-6.1394	-24.485	212.8	-3.15302	-47.6439	206.714	3.38158	-65.619	204.237	-8.84619	-11.8854	192.318	-7.06355	-26.2078	184.563	-5.16617	-44.0345	229.285	-18.7127	18.7252	234.711	-22.7267	42.8452	256.367	-11.3458	25.1063	
57	0.475	262.143	18.353	34.3873	250.707	38.6812	5.32384	229.862	37.9211	-12.0874	211.128	28.703	-11.2718	260.301	6.71967	-29.4565	256.321	14.0305	-51.8297	251.449	25.8363	-72.8516	237.092	-2.90108	-33.8648	235.509	3.48302	-58.9757	228.438	11.0698	-80.0044	217.65	-6.56293	-23.7172	213.701	-1.75797	-46.0149	211.517	6.89321	-67.2776	198.611	-7.83866	-12.3156	195.354	-2.82323	-27.1114	185.005	-1.34361	-47.3094	231.087	-18.4731	18.5521	231.536	-22.9662	40.336	254.518	-14.3835	25.6229	
58	0.483333	262.884	14.7265	32.3989	254.507	38.3313	8.77927	236.391	40.3996	-9.44768	211.28	28.4872	-10.4694	258.781	4.55009	-28.7686	260.644	14.0779	-52.5453	256.925	24.7663	-71.038	237.992	-3.51541	-31.8623	232.695	3.1035	-59.1064	232.066	12.9509	-83.0004	221.624	-5.27741	-24.8893	211.494	0.845712	-47.2381	210.558	8.03946	-64.9893	198.827	-5.26011	-10.5686	192.568	-0.101169	-26.5299	184.454	0.624337	-43.7785	226.098	-18.0193	20.2853	229.754	-23.8495	45.8632	254.158	-16.7827	28.1084	
